<svg width="36" height="36" viewBox="0 0 36 36" fill="none" xmlns="http://www.w3.org/2000/svg">
<rect width="36" height="36" rx="18" fill="#D2D9D2"/>
<g clip-path="url(#clip0_2002_4969)">
<path d="M17.6017 9.89535C15.3937 10.1012 13.7835 11.773 13.5019 12.0733C13.3982 12.1847 11.6826 14.0624 11.7204 15.844C11.7254 16.0452 11.7599 16.635 11.6019 17.4074C11.5393 17.7108 11.452 18.1226 11.215 18.6086C10.9548 19.1457 10.8033 19.172 10.2649 20.0188C9.92904 20.5451 9.7611 20.8144 9.70018 21.1224C9.57999 21.74 9.79238 22.2509 9.86318 22.4072C10.1908 23.1177 10.828 23.4567 11.3928 23.7477C11.6496 23.8793 12.1172 24.096 13.6205 24.404C14.4519 24.5743 15.1073 24.709 16.0112 24.7956C18.2471 25.0093 19.9792 24.7368 21.3656 24.5093C22.8606 24.2632 23.5159 24.0248 23.8221 23.9025C24.7705 23.5279 25.8588 23.0976 26.2128 22.1146C26.4499 21.4568 26.2589 20.8237 26.2425 20.7741C26.0926 20.3036 25.8572 20.1983 25.4406 19.4754C25.3237 19.2727 25.0767 18.8392 24.9203 18.3439C24.726 17.7263 24.8314 17.5111 24.787 16.3332C24.7507 15.3734 24.731 14.8518 24.535 14.211C24.3144 13.4927 23.9851 12.9958 23.8073 12.7311C23.6048 12.4293 22.7157 11.1615 20.9704 10.386C20.4073 10.1353 19.9068 10.0579 19.6483 10.0083C19.5989 9.99906 18.5599 9.80712 17.5984 9.8969L17.6017 9.89535Z" fill="#FFF7E2"/>
<path d="M16.989 9.98226C16.2898 10.113 14.9979 10.4511 13.5012 12.0537C13.4081 12.1526 11.6812 14.0406 11.7184 15.8298C11.7235 16.0307 11.7574 16.6224 11.5999 17.3958C11.5373 17.6987 11.4492 18.1117 11.2139 18.5981C10.9532 19.1355 10.8025 19.1626 10.2641 20.011C9.92884 20.5372 9.75953 20.8067 9.70027 21.116C9.58007 21.7348 9.7917 22.2466 9.86281 22.4029C10.1896 23.1141 10.8262 23.4538 11.3917 23.7456C11.649 23.8779 12.1163 24.0948 13.6198 24.4026C14.4511 24.5732 15.1063 24.7072 16.0104 24.7949C18.247 25.0085 19.979 24.7359 21.3656 24.5078C22.8606 24.2623 23.5158 24.0215 23.8223 23.9003C24.7721 23.5239 25.859 23.0934 26.2129 22.1095C26.4499 21.4493 26.2586 20.8162 26.2434 20.7668C26.0944 20.2964 25.8574 20.1896 25.4409 19.4656C25.324 19.2631 25.0768 18.8277 24.9211 18.3334C24.7264 17.7147 24.8313 17.4994 24.7873 16.3194C24.7518 15.3594 24.7315 14.8364 24.5351 14.1937C24.315 13.4745 23.9848 12.9754 23.807 12.7107C23.6056 12.4093 22.715 11.1384 20.9711 10.3602C20.3752 10.0955 20.0772 9.96315 19.6488 9.98229C18.3113 10.0445 17.4732 11.4844 17.3462 11.7029C16.5776 13.0249 16.8197 14.4489 16.989 15.4519C17.1058 16.1376 17.2904 16.6893 17.4343 17.0609" stroke="#3A643B" stroke-width="0.7" stroke-miterlimit="10" stroke-linecap="round"/>
<path d="M16.8865 14.1289C17.1702 14.2135 18.0273 14.5086 18.5657 15.3733C19.1899 16.376 19.1288 17.7391 18.4158 18.8501C18.0258 18.7714 17.4583 18.5935 16.9069 18.1663C16.5911 17.9215 16.1677 17.5938 15.9436 16.9797C15.705 16.3286 15.8374 15.756 15.8781 15.5869C16.0906 14.7178 16.7119 14.252 16.8865 14.1289Z" stroke="#3A643B" stroke-width="0.7" stroke-miterlimit="10"/>
<path d="M18.8359 25.9342C19.3308 26.2638 20.1154 26.406 20.8345 26.2974C21.5084 26.1951 22.0223 25.8882 22.1693 25.5" stroke="#3A643B" stroke-width="0.7" stroke-miterlimit="10" stroke-linecap="round"/>
</g>
<defs>
<clipPath id="clip0_2002_4969">
<rect width="20" height="20" fill="white" transform="translate(8 8)"/>
</clipPath>
</defs>
</svg>
